<svg width="48" height="42" viewBox="0 0 48 42" fill="none" xmlns="http://www.w3.org/2000/svg">
<path d="M32 3L36 7L32 11" stroke="black" stroke-width="1.5"/>
<path d="M37 3L41 7L37 11" stroke="black" stroke-width="1.5"/>
<path d="M42 3L46 7L42 11" stroke="black" stroke-width="1.5"/>
<path d="M16 11L12 7L16 3" stroke="black" stroke-width="1.5"/>
<path d="M11 11L7 7L11 3" stroke="black" stroke-width="1.5"/>
<path d="M6 11L2 7L6 3" stroke="black" stroke-width="1.5"/>
<path d="M43 17.9999V32.9219C43 33.4319 42.903 33.9319 42.714 34.4069L39.929 41.3709C39.776 41.7509 39.409 41.9999 39 41.9999H21C20.642 41.9999 20.31 41.8079 20.132 41.4959L14.528 31.6879C14.183 31.0829 14 30.3969 14 29.7029V20.8539C14 19.3289 14.848 17.9579 16.211 17.2759L20 15.3819V3.99994C20 1.79394 21.794 -6.10352e-05 24 -6.10352e-05C26.206 -6.10352e-05 28 1.79394 28 3.99994V13.9999H39C41.206 13.9999 43 15.7939 43 17.9999ZM41 17.9999C41 16.8969 40.103 15.9999 39 15.9999H27C26.447 15.9999 26 15.5519 26 14.9999V3.99994C26 2.89694 25.103 1.99994 24 1.99994C22.897 1.99994 22 2.89694 22 3.99994V23.9999C22 24.5519 21.553 24.9999 21 24.9999C20.447 24.9999 20 24.5519 20 23.9999V17.6179L17.105 19.0649C16.424 19.4059 16 20.0919 16 20.8539V29.7029C16 30.0499 16.092 30.3929 16.264 30.6959L21.58 39.9999H38.323L40.856 33.6649C40.952 33.4269 41 33.1769 41 32.9219V17.9999Z" fill="black"/>
</svg>
