<svg width="1119" height="234" viewBox="0 0 1119 234" fill="none" xmlns="http://www.w3.org/2000/svg">
<path d="M1119 58.7585H950.597V92.439H1119V140.983H950.597V174.664H1119V230.007H879.283V3.25684H1119V58.7585Z" fill="#101010"/>
<path d="M718.863 148.953V107.525H864.179V229.913H818.481L814.37 195.916C792.021 220.689 758.552 233.075 713.961 233.075C671.583 233.075 638.694 223.166 615.291 203.348C591.889 183.424 580.188 154.382 580.188 116.221C580.188 78.0607 592.363 49.1767 616.714 29.5693C641.171 9.85642 676.801 0 723.606 0C768.303 0 802.458 7.95893 826.071 23.8768C849.684 39.7946 862.387 62.7227 864.179 92.6609H791.6C790.756 88.7605 788.964 85.0709 786.224 81.5922C783.588 78.008 779.74 74.582 774.68 71.3141C769.726 67.9408 762.821 65.2527 753.966 63.2497C745.217 61.2468 735.097 60.2454 723.606 60.2454C711.483 60.2454 700.942 61.4577 691.981 63.8822C683.126 66.2014 676.116 69.2058 670.951 72.8953C665.891 76.4795 661.832 80.9597 658.775 86.3359C655.824 91.7121 653.873 96.8775 652.925 101.832C651.976 106.787 651.502 112.321 651.502 118.435C651.502 122.757 651.712 126.816 652.134 130.611C652.661 134.406 653.557 138.464 654.822 142.786C656.193 147.003 657.985 150.851 660.198 154.329C662.412 157.808 665.364 161.181 669.053 164.449C672.743 167.717 677.012 170.511 681.861 172.83C686.816 175.044 692.825 176.836 699.888 178.206C707.056 179.471 714.962 180.104 723.606 180.104C744.584 180.104 760.871 177.099 772.467 171.091C784.063 165.082 790.44 157.703 791.6 148.953H718.863Z" fill="#F8585A"/>
<path d="M565.114 88.1696C565.114 105.458 561.161 120.743 553.255 134.026C545.454 147.203 534.596 157.165 520.681 163.911L561.477 230.007H477.355L443.675 173.399H371.412V230.007H300.098V3.25684H478.304C504.131 3.25684 525.056 11.1103 541.079 26.8174C557.102 42.5244 565.114 62.9751 565.114 88.1696ZM371.412 63.5022V113.153H462.017C464.652 113.153 466.655 113.153 468.026 113.153C469.502 113.048 471.504 112.837 474.034 112.521C476.67 112.205 478.725 111.783 480.201 111.256C481.677 110.623 483.364 109.727 485.261 108.568C487.264 107.303 488.793 105.827 489.847 104.14C490.901 102.348 491.797 100.134 492.535 97.499C493.378 94.7581 493.8 91.6484 493.8 88.1696C493.8 83.4259 493.062 79.4201 491.586 76.1522C490.11 72.8843 488.424 70.4597 486.526 68.8784C484.734 67.1918 482.152 65.9268 478.778 65.0835C475.405 64.2401 472.664 63.7658 470.556 63.6603C468.553 63.5549 465.707 63.5022 462.017 63.5022H371.412Z" fill="#101010"/>
<path d="M285.098 114.506C285.098 154.248 273.661 183.659 250.785 202.74C228.015 221.82 191.963 231.36 142.628 231.36C93.188 231.36 57.0302 221.873 34.1549 202.898C11.385 183.817 0 154.354 0 114.506V1.44727H71.3141V114.506C71.3141 120.726 71.7358 126.313 72.5791 131.267C73.5278 136.117 75.478 141.176 78.4297 146.447C81.4868 151.613 85.4926 155.935 90.4471 159.414C95.5071 162.892 102.465 165.738 111.32 167.952C120.175 170.166 130.611 171.273 142.628 171.273C151.272 171.273 159.126 170.693 166.189 169.533C173.252 168.374 179.208 166.845 184.057 164.948C188.906 162.945 193.123 160.468 196.707 157.516C200.396 154.564 203.295 151.56 205.404 148.503C207.617 145.34 209.357 141.756 210.622 137.75C211.887 133.745 212.73 129.95 213.152 126.366C213.573 122.781 213.784 118.828 213.784 114.506V1.44727H285.098V114.506Z" fill="#101010"/>
</svg>
